<svg width="15" height="11" viewBox="0 0 15 11" fill="none" xmlns="http://www.w3.org/2000/svg">
<path d="M14.2043 8.75043H2.25001V0.624924C2.25001 0.388643 2.05188 0.197266 1.80726 0.197266H0.921756C0.677136 0.197266 0.479004 0.388643 0.479004 0.624924V9.60575C0.479004 10.078 0.875544 10.4611 1.36451 10.4611H14.2043C14.4489 10.4611 14.6471 10.2697 14.6471 10.0334V9.17809C14.6471 8.94181 14.4489 8.75043 14.2043 8.75043ZM13.3188 1.05258H10.0519C9.46023 1.05258 9.16387 1.74352 9.58227 2.14766L10.4788 3.01366L8.44855 4.97501L6.41825 3.01393C6.07235 2.67982 5.51171 2.67982 5.16609 3.01393L3.2653 4.84992C3.09235 5.01698 3.09235 5.28774 3.2653 5.45479L3.89124 6.05939C4.06419 6.22645 4.34451 6.22645 4.51746 6.05939L5.79203 4.828L7.82233 6.78908C8.16823 7.12319 8.72886 7.12319 9.07449 6.78908L11.731 4.22313L12.6276 5.08914C13.046 5.49328 13.7613 5.20702 13.7613 4.63556V1.48024C13.7616 1.24396 13.5634 1.05258 13.3188 1.05258Z" fill="white"/>
</svg>
