<svg width="31" height="30" viewBox="0 0 31 30" fill="none" xmlns="http://www.w3.org/2000/svg">
<g clip-path="url(#clip0_14746_9641)">
<path d="M29.9053 21.8408H4.59277V4.62207C4.59277 4.12137 4.17324 3.71582 3.65527 3.71582H1.78027C1.2623 3.71582 0.842773 4.12137 0.842773 4.62207V23.6533C0.842773 24.6542 1.68242 25.4658 2.71777 25.4658H29.9053C30.4232 25.4658 30.8428 25.0603 30.8428 24.5596V22.7471C30.8428 22.2464 30.4232 21.8408 29.9053 21.8408ZM28.0303 5.52832H21.1127C19.86 5.52832 19.2324 6.99248 20.1184 7.84889L22.0168 9.68404L17.7178 13.8403L13.4188 9.68461C12.6863 8.9766 11.4992 8.9766 10.7674 9.68461L6.74258 13.5753C6.37637 13.9293 6.37637 14.503 6.74258 14.857L8.06797 16.1382C8.43418 16.4922 9.02773 16.4922 9.39395 16.1382L12.0928 13.5288L16.3918 17.6845C17.1242 18.3925 18.3113 18.3925 19.0432 17.6845L24.6682 12.247L26.5666 14.0822C27.4525 14.9386 28.9672 14.332 28.9672 13.121V6.43457C28.9678 5.93387 28.5482 5.52832 28.0303 5.52832Z" fill="#777777"/>
</g>
<defs>
<clipPath id="clip0_14746_9641">
<rect width="30" height="29" fill="white" transform="translate(0.842773 0.0908203)"/>
</clipPath>
</defs>
</svg>
